<svg xmlns="http://www.w3.org/2000/svg" width="82" height="82" viewBox="0 0 82 82" fill="none"><g filter="url(#filter0_d_714_3033)"><rect x="5" y="3" width="72" height="72" rx="1.8" fill="#3A92A0"></rect></g><g clip-path="url(#clip0_714_3033)" filter="url(#filter1_d_714_3033)"><path d="M62.7128 43.1776C62.2781 43.1718 61.8786 43.1315 61.5202 43.0681C63.0065 41.7942 63.0535 40.4801 62.9948 39.9383C62.842 38.5261 61.6612 37.4598 60.2513 37.4598C58.5418 37.4598 57.2435 38.7913 57.2317 40.5608C57.2258 41.4426 57.5607 42.3591 58.2657 43.1084C57.8074 43.2813 57.2846 43.4427 56.7089 43.5926C55.2226 36.5203 47.9204 31.1368 39.1554 31.1368C36.8114 31.1368 34.532 31.5172 32.3819 32.2665C29.6795 29.8976 26.1841 29.5345 24.2866 29.5345H24.0868C23.1762 29.546 22.8708 30.0532 22.7826 30.2722C22.6886 30.497 22.5535 31.0849 23.235 31.7478C24.1103 32.5951 25.5672 34.2608 25.8727 36.1745C24.7095 37.2754 23.7461 38.5031 23.0117 39.8345L20.374 40.2726C19.1286 40.4686 18.5 41.1948 18.5 42.4283V49.1029C18.5 50.3363 19.1286 51.0626 20.3623 51.2643L22.483 51.6159C23.3584 53.5641 24.7213 55.3624 26.4543 56.8495L27.829 62.9938C28.0992 64.1927 28.8336 64.7749 30.0849 64.7749H33.6155C34.8492 64.7749 35.6012 64.2042 35.9125 63.0342L36.4119 61.1724C38.28 61.4145 40.1717 61.4088 42.0163 61.1551L42.4275 62.9938C42.6978 64.1927 43.4321 64.7749 44.6834 64.7749H48.2141C49.4478 64.7749 50.1997 64.2042 50.5111 63.0342L52.2794 56.4633C55.3107 53.6679 56.985 50.0424 56.985 46.244C56.985 45.8751 56.9615 45.5062 56.9321 45.1431C58.0777 44.8606 59.0235 44.5263 59.7813 44.1632C60.5627 44.509 61.5261 44.7281 62.6893 44.7396C62.6952 44.7396 62.6952 44.7396 62.701 44.7396C63.1358 44.7396 63.4941 44.3938 63.5 43.9672C63.5059 43.5407 63.1534 43.1833 62.7128 43.1776ZM29.844 42.5608C28.8747 42.5608 28.0816 41.7827 28.0816 40.8317C28.0816 39.8749 28.8747 39.1025 29.844 39.1025C30.8133 39.1025 31.6064 39.8806 31.6064 40.8317C31.6064 41.7827 30.8133 42.5608 29.844 42.5608ZM59.799 42.3706C59.1351 41.8807 58.8238 41.2179 58.8296 40.5665C58.8355 39.823 59.282 39.0218 60.2513 39.0218C60.8329 39.0218 61.344 39.4945 61.4086 40.1054C61.4791 40.7683 61.0385 41.6098 59.799 42.3706Z" fill="#FBFCFE"></path></g><path opacity="0.5" d="M39.1496 28.8371C43.6261 28.8371 47.2743 25.2634 47.2743 20.8656C47.2743 16.4735 43.632 12.8999 39.1496 12.8999C34.6731 12.8999 31.0249 16.4735 31.0249 20.8714C31.0308 25.2634 34.6731 28.8371 39.1496 28.8371ZM39.1496 14.4677C42.7508 14.4677 45.6763 17.3381 45.6763 20.8714C45.6763 24.4046 42.7508 27.275 39.1496 27.275C35.5543 27.275 32.6228 24.4046 32.6228 20.8714C32.6228 17.3381 35.5543 14.4677 39.1496 14.4677Z" fill="white"></path><path opacity="0.5" d="M39.0026 23.3153C38.0568 23.3153 37.0639 22.8253 37.0581 22.8196L36.3237 24.2087C36.3766 24.2375 37.5574 24.8197 38.8381 24.8715V25.8456H39.8074V24.7966C41.141 24.5142 41.7578 23.5343 41.7578 22.5544C41.7578 21.3844 40.9588 20.5486 39.3844 20.0817C38.1449 19.7128 38.1449 19.2863 38.1449 19.1019C38.1449 18.439 38.8733 18.341 39.3022 18.341C40.248 18.341 41.2408 18.831 41.2467 18.8367L41.9752 17.4476C41.9282 17.4246 40.9412 16.9289 39.8015 16.8078V15.8914H38.8322V16.8078C37.2637 16.9865 36.547 18.0413 36.547 19.0961C36.547 20.2662 37.3459 21.1019 38.9203 21.5746C40.1599 21.9492 40.1599 22.37 40.1599 22.5487C40.1599 23.2173 39.4314 23.3153 39.0026 23.3153Z" fill="white"></path><defs><filter id="filter0_d_714_3033" x="0.5" y="0.3" width="81" height="81" filterUnits="userSpaceOnUse" color-interpolation-filters="sRGB"><feGaussianBlur stdDeviation="2.25"></feGaussianBlur></filter><filter id="filter1_d_714_3033" x="17.6" y="12.8999" width="46.8" height="53.675" filterUnits="userSpaceOnUse" color-interpolation-filters="sRGB"><feGaussianBlur stdDeviation="0.45"></feGaussianBlur></filter><clipPath id="clip0_714_3033"><rect width="45" height="51.875" fill="white" transform="translate(18.5 12.8999)"></rect></clipPath></defs></svg>