<svg xmlns="http://www.w3.org/2000/svg" width="82" height="82" viewBox="0 0 82 82" fill="none"><g filter="url(#filter0_d_714_3036)"><rect x="5" y="3" width="72" height="72" rx="1.8" fill="#3A92A0"></rect></g><g clip-path="url(#clip0_714_3036)" filter="url(#filter1_d_714_3036)"><path d="M63.4013 50.9608V42.3475C63.4013 38.6118 44.6979 38.4271 40.9507 38.4271C37.2034 38.4271 18.5 38.6118 18.5 42.3475V50.9692C18.5 54.4783 35.0482 54.8477 40.1343 54.8813V57.7356C40.1343 58.0882 40.3465 58.3988 40.6649 58.5247C40.7547 58.5583 40.8527 58.5751 40.9507 58.5751C41.1874 58.5751 41.416 58.4659 41.5711 58.2813L48.7798 49.6596C49.0574 49.3238 49.041 48.8285 48.739 48.5179L41.5303 41.1303C41.2119 40.8029 40.6976 40.8029 40.3792 41.1303C40.2159 41.2898 40.1343 41.508 40.1343 41.7263V44.5806C29.0559 44.5218 21.7492 43.2962 20.2961 42.3475C21.7819 41.3737 29.4151 40.1061 40.9507 40.1061C52.4535 40.1061 60.0786 41.3653 61.5971 42.3391C60.846 42.7841 58.2336 43.6404 51.7025 44.1776C51.2779 44.2112 50.9514 44.5806 50.9514 45.0171V53.6304C50.9514 54.0921 51.3106 54.4699 51.7678 54.4699C51.7923 54.4699 51.8168 54.4699 51.8331 54.4699C63.4013 53.5129 63.4013 51.7248 63.4013 50.9608Z" fill="#FBFCFE"></path></g><g opacity="0.5"><path d="M27.6422 23.5739C29.0864 23.8144 30.1932 24.3677 30.9624 25.2337C31.7317 26.0837 32.1163 27.1422 32.1163 28.4091C32.1163 29.3874 31.8651 30.2935 31.3628 31.1275C30.8604 31.9454 30.0912 32.6029 29.055 33.1001C28.0346 33.5973 26.7787 33.8458 25.2873 33.8458C24.1256 33.8458 22.9796 33.6935 21.8493 33.3888C20.7347 33.068 19.7849 32.619 19 32.0416L20.4835 29.0587C21.1115 29.5398 21.8336 29.9167 22.65 30.1893C23.482 30.4459 24.3297 30.5742 25.1932 30.5742C26.1508 30.5742 26.9043 30.3898 27.4538 30.0209C28.0032 29.636 28.278 29.0988 28.278 28.4091C28.278 27.0299 27.2497 26.3403 25.1932 26.3403H23.4506V23.7663L26.8415 19.8451H19.8242V16.7178H31.3628V19.2437L27.6422 23.5739Z" fill="white"></path><path d="M41.8133 22.9965C42.8651 22.9965 43.8228 23.213 44.6862 23.646C45.5496 24.079 46.2325 24.6965 46.7349 25.4983C47.2372 26.2842 47.4884 27.1983 47.4884 28.2407C47.4884 29.3634 47.2137 30.3497 46.6642 31.1997C46.1148 32.0496 45.3612 32.7072 44.4036 33.1723C43.4617 33.6213 42.4099 33.8458 41.2482 33.8458C38.9405 33.8458 37.1351 33.1242 35.8321 31.6808C34.5291 30.2374 33.8776 28.1766 33.8776 25.4983C33.8776 23.5899 34.2308 21.9541 34.9373 20.5909C35.6437 19.2277 36.6249 18.1933 37.8808 17.4876C39.1524 16.782 40.6202 16.4292 42.2843 16.4292C43.1634 16.4292 44.0033 16.5334 44.8039 16.7419C45.6203 16.9343 46.311 17.215 46.8762 17.5839L45.4633 20.4465C44.647 19.8852 43.6187 19.6046 42.3785 19.6046C40.9813 19.6046 39.8745 20.0216 39.0582 20.8555C38.2419 21.6895 37.8023 22.9003 37.7395 24.488C38.7128 23.4937 40.0708 22.9965 41.8133 22.9965ZM41.0362 30.935C41.8526 30.935 42.5119 30.7105 43.0143 30.2615C43.5323 29.8124 43.7914 29.203 43.7914 28.4332C43.7914 27.6634 43.5323 27.054 43.0143 26.6049C42.5119 26.1398 41.8369 25.9073 40.9891 25.9073C40.1571 25.9073 39.4742 26.1479 38.9405 26.629C38.4067 27.0941 38.1398 27.6955 38.1398 28.4332C38.1398 29.1709 38.3989 29.7723 38.9169 30.2374C39.435 30.7025 40.1414 30.935 41.0362 30.935Z" fill="white"></path><path d="M55.9356 33.8458C54.5698 33.8458 53.3531 33.501 52.2856 32.8114C51.2181 32.1218 50.3782 31.1275 49.766 29.8285C49.1694 28.5134 48.8711 26.9497 48.8711 25.1375C48.8711 23.3253 49.1694 21.7696 49.766 20.4706C50.3782 19.1555 51.2181 18.1532 52.2856 17.4636C53.3531 16.774 54.5698 16.4292 55.9356 16.4292C57.3014 16.4292 58.518 16.774 59.5855 17.4636C60.653 18.1532 61.4851 19.1555 62.0816 20.4706C62.6939 21.7696 63 23.3253 63 25.1375C63 26.9497 62.6939 28.5134 62.0816 29.8285C61.4851 31.1275 60.653 32.1218 59.5855 32.8114C58.518 33.501 57.3014 33.8458 55.9356 33.8458ZM55.9356 30.5501C56.9403 30.5501 57.7252 30.1091 58.2904 29.2271C58.8712 28.345 59.1617 26.9818 59.1617 25.1375C59.1617 23.2932 58.8712 21.93 58.2904 21.048C57.7252 20.1659 56.9403 19.7249 55.9356 19.7249C54.9465 19.7249 54.1616 20.1659 53.5808 21.048C53.0156 21.93 52.733 23.2932 52.733 25.1375C52.733 26.9818 53.0156 28.345 53.5808 29.2271C54.1616 30.1091 54.9465 30.5501 55.9356 30.5501Z" fill="white"></path></g><defs><filter id="filter0_d_714_3036" x="0.5" y="0.3" width="81" height="81" filterUnits="userSpaceOnUse" color-interpolation-filters="sRGB"><feGaussianBlur stdDeviation="2.25"></feGaussianBlur></filter><filter id="filter1_d_714_3036" x="17.6" y="38.4271" width="46.7012" height="21.948" filterUnits="userSpaceOnUse" color-interpolation-filters="sRGB"><feGaussianBlur stdDeviation="0.45"></feGaussianBlur></filter><clipPath id="clip0_714_3036"><rect width="44.9013" height="20.148" fill="white" transform="translate(18.5 38.4271)"></rect></clipPath></defs></svg>