<svg width="791" height="182" viewBox="0 0 791 182" fill="none" xmlns="http://www.w3.org/2000/svg">
<g filter="url(#filter0_i)">
<path d="M69.2246 53.0938V82H55.6504V15.3008H92.6621V26.2871H69.127V42.1074H91.7344V53.0938H69.2246ZM146.74 32.4883V62.7129C146.805 64.1126 146.87 66.2773 146.936 69.207C147.033 72.1367 147.115 74.4805 147.18 76.2383C147.245 77.9961 147.342 79.9167 147.473 82H135.363L134.973 74.3828C133.833 76.1732 132.45 77.6868 130.822 78.9238C129.227 80.1608 127.421 81.1211 125.402 81.8047C123.384 82.4557 121.366 82.7812 119.348 82.7812C114.758 82.7812 111.177 81.8372 108.605 79.9492C106.034 78.0612 104.26 75.4733 103.283 72.1855C102.339 68.8978 101.867 64.9753 101.867 60.418V32.4883H114.66V56.3164C114.66 59.4089 114.807 62.0293 115.1 64.1777C115.425 66.2936 116.255 68.1491 117.59 69.7441C118.924 71.3066 120.943 72.0879 123.645 72.0879C127.518 72.0879 130.204 70.4603 131.701 67.2051C133.199 63.9173 133.947 60.0762 133.947 55.6816V32.4883H146.74ZM171.473 32.4883L171.766 40.3984C175.737 34.6042 181.303 31.707 188.465 31.707C195.105 31.707 199.581 33.6764 201.893 37.6152C204.204 41.5215 205.359 47.0228 205.359 54.1191V82H192.566V57.0977C192.566 52.7031 191.997 49.1387 190.857 46.4043C189.751 43.6699 187.326 42.3027 183.582 42.3027C179.578 42.3027 176.762 43.9141 175.135 47.1367C173.507 50.3268 172.693 54.1191 172.693 58.5137V82H159.852V50.5059C159.852 43.5072 159.689 37.5013 159.363 32.4883H171.473ZM262.562 82H250.453L250.258 73.6016C248.793 76.5638 246.693 78.8424 243.959 80.4375C241.257 82 238.197 82.7812 234.779 82.7812C231.199 82.7812 228.057 82.0814 225.355 80.6816C222.686 79.2493 220.521 77.3288 218.861 74.9199C217.201 72.5111 215.964 69.7767 215.15 66.7168C214.369 63.6569 213.979 60.4505 213.979 57.0977C213.979 52.6706 214.711 48.5202 216.176 44.6465C217.641 40.7402 219.903 37.599 222.963 35.2227C226.055 32.8138 229.896 31.6094 234.486 31.6094C237.937 31.6094 240.948 32.3743 243.52 33.9043C246.091 35.4342 248.207 37.6966 249.867 40.6914C249.542 38.2826 249.379 35.3529 249.379 31.9023V9.97852H262.172V67.5957C262.237 70.7858 262.286 73.5853 262.318 75.9941C262.383 78.403 262.465 80.4049 262.562 82ZM249.574 57.5859C249.574 55.0143 249.167 52.5892 248.354 50.3105C247.54 47.9993 246.254 46.0951 244.496 44.5977C242.771 43.0677 240.622 42.3027 238.051 42.3027C234.21 42.3027 231.443 43.7839 229.75 46.7461C228.09 49.6758 227.26 53.224 227.26 57.3906C227.26 61.2969 228.188 64.8288 230.043 67.9863C231.898 71.1439 234.633 72.7227 238.246 72.7227C240.688 72.7227 242.771 71.9902 244.496 70.5254C246.254 69.028 247.54 67.14 248.354 64.8613C249.167 62.5501 249.574 60.125 249.574 57.5859ZM356.412 82H342.984V53.2891H316.373V82H302.896V15.3008H316.373V42.4004H342.984V15.3008H356.412V82ZM418.4 57.6836C418.4 61.4922 417.782 64.9915 416.545 68.1816C415.308 71.3392 413.55 74.041 411.271 76.2871C409.025 78.5007 406.324 80.2259 403.166 81.4629C400.008 82.6999 396.493 83.3184 392.619 83.3184C387.508 83.3184 383.016 82.2116 379.143 79.998C375.269 77.7845 372.274 74.6595 370.158 70.623C368.075 66.5866 367.033 62.0456 367.033 57C367.033 51.9544 368.107 47.4785 370.256 43.5723C372.404 39.666 375.415 36.6387 379.289 34.4902C383.195 32.3092 387.671 31.2188 392.717 31.2188C396.623 31.2188 400.155 31.8698 403.312 33.1719C406.503 34.474 409.221 36.3294 411.467 38.7383C413.713 41.1146 415.422 43.9141 416.594 47.1367C417.798 50.3594 418.4 53.875 418.4 57.6836ZM405.119 57.3906C405.119 54.7214 404.68 52.1009 403.801 49.5293C402.954 46.9577 401.587 44.8418 399.699 43.1816C397.811 41.5215 395.484 40.6914 392.717 40.6914C390.08 40.6914 387.801 41.5052 385.881 43.1328C383.993 44.7604 382.593 46.8438 381.682 49.3828C380.77 51.8893 380.314 54.4284 380.314 57C380.314 59.7669 380.738 62.4362 381.584 65.0078C382.463 67.5794 383.846 69.6953 385.734 71.3555C387.622 72.9831 390.015 73.7969 392.912 73.7969C394.963 73.7969 396.77 73.3086 398.332 72.332C399.895 71.3229 401.164 70.0534 402.141 68.5234C403.117 66.9609 403.85 65.2194 404.338 63.2988C404.859 61.3457 405.119 59.3763 405.119 57.3906ZM439.812 32.4883L440.105 40.0078C441.701 37.4036 443.849 35.3691 446.551 33.9043C449.285 32.4395 452.231 31.707 455.389 31.707C458.839 31.707 461.688 32.4232 463.934 33.8555C466.212 35.2552 468.035 37.4688 469.402 40.4961C471.062 37.6641 473.26 35.4993 475.994 34.002C478.761 32.472 481.805 31.707 485.125 31.707C491.277 31.707 495.428 33.6602 497.576 37.5664C499.725 41.4401 500.799 46.681 500.799 53.2891V82H488.006V57.9766V56.0234C488.006 52.0195 487.534 48.7318 486.59 46.1602C485.678 43.5885 483.66 42.3027 480.535 42.3027C474.057 42.3027 470.818 47.9017 470.818 59.0996V82H458.025V56.6094V53.0938C458.025 50.2292 457.472 47.7227 456.365 45.5742C455.258 43.3932 453.338 42.3027 450.604 42.3027C447.055 42.3027 444.533 43.8164 443.035 46.8438C441.538 49.8385 440.789 53.2891 440.789 57.1953V82H427.996V44.5977C427.996 40.0729 427.866 36.0365 427.605 32.4883H439.812ZM552.143 68.8164L552.338 79.9004C547.097 82.179 541.433 83.3184 535.346 83.3184C531.277 83.3184 527.647 82.7487 524.457 81.6094C521.299 80.4375 518.598 78.7285 516.352 76.4824C514.105 74.2038 512.396 71.4694 511.225 68.2793C510.053 65.0566 509.467 61.3945 509.467 57.293C509.467 53.5169 510.004 50.0501 511.078 46.8926C512.185 43.7025 513.764 40.9518 515.814 38.6406C517.865 36.2969 520.388 34.474 523.383 33.1719C526.41 31.8698 529.828 31.2188 533.637 31.2188C537.348 31.2188 540.619 31.8861 543.451 33.2207C546.283 34.5553 548.578 36.3945 550.336 38.7383C552.126 41.082 553.461 43.8001 554.34 46.8926C555.219 49.9525 555.658 53.3216 555.658 57C555.658 57.651 555.642 58.1393 555.609 58.4648C555.577 58.7904 555.544 59.1973 555.512 59.6855C555.479 60.1738 555.43 60.7435 555.365 61.3945H522.064C522.39 65.3008 523.904 68.3444 526.605 70.5254C529.34 72.7064 532.725 73.7969 536.762 73.7969C541.319 73.7969 546.446 72.1367 552.143 68.8164ZM543.451 52.5078C543.386 50.2943 542.979 48.2598 542.23 46.4043C541.514 44.5488 540.391 43.0514 538.861 41.9121C537.364 40.7728 535.492 40.2031 533.246 40.2031C530.935 40.2031 528.949 40.7728 527.289 41.9121C525.661 43.0189 524.392 44.5 523.48 46.3555C522.602 48.2109 522.064 50.2617 521.869 52.5078H543.451ZM598.359 69.6953L599.092 80.4863C594.795 81.7559 590.954 82.3906 587.568 82.3906C583.792 82.3906 580.326 81.821 577.168 80.6816C574.01 79.5098 571.292 77.8171 569.014 75.6035C566.768 73.39 565.042 70.7044 563.838 67.5469C562.666 64.3568 562.08 60.8411 562.08 57C562.08 52.1172 563.122 47.7878 565.205 44.0117C567.321 40.2357 570.283 37.306 574.092 35.2227C577.933 33.1393 582.262 32.0977 587.08 32.0977C590.661 32.0977 594.29 32.6348 597.969 33.709L596.992 44.0117C594.062 42.8724 591.426 42.3027 589.082 42.3027C586.413 42.3027 584.02 42.9701 581.904 44.3047C579.788 45.6068 578.161 47.3646 577.021 49.5781C575.915 51.7591 575.361 54.2005 575.361 56.9023C575.361 61.362 576.663 64.9427 579.268 67.6445C581.872 70.3464 585.371 71.6973 589.766 71.6973C592.565 71.6973 595.43 71.0299 598.359 69.6953ZM648.336 82H636.91L636.715 74.5781C635.185 77.2148 633.036 79.2493 630.27 80.6816C627.535 82.0814 624.557 82.7812 621.334 82.7812C618.046 82.7812 615.1 82.2116 612.496 81.0723C609.924 79.9329 607.89 78.2077 606.393 75.8965C604.895 73.5527 604.146 70.7207 604.146 67.4004C604.146 61.2155 606.572 56.9837 611.422 54.7051C616.272 52.4264 622.18 51.2871 629.146 51.2871C630.156 51.2871 630.807 51.3034 631.1 51.3359C631.393 51.3359 632.044 51.3685 633.053 51.4336C634.062 51.4661 635.087 51.515 636.129 51.5801C636.129 47.9017 635.234 45.1673 633.443 43.377C631.653 41.5866 628.886 40.6914 625.143 40.6914C619.479 40.6914 614.368 42.498 609.811 46.1113L609.42 34.9785C614.726 32.7324 620.471 31.6094 626.656 31.6094C628.967 31.6094 631.262 31.8372 633.541 32.293C635.82 32.7487 637.919 33.5137 639.84 34.5879C641.793 35.6296 643.404 37.0293 644.674 38.7871C645.976 40.5449 646.822 42.5632 647.213 44.8418C647.636 47.0879 647.848 49.7734 647.848 52.8984C647.848 56.1211 647.848 59.36 647.848 62.6152C647.88 65.8704 647.913 68.849 647.945 71.5508C648.01 74.2201 648.141 77.7031 648.336 82ZM636.324 59.4902C635.999 59.4251 635.494 59.3926 634.811 59.3926H633.248C630.449 59.3926 627.877 59.5553 625.533 59.8809C623.222 60.1738 621.188 60.9551 619.43 62.2246C617.704 63.4616 616.842 65.2845 616.842 67.6934C616.842 69.6465 617.607 71.209 619.137 72.3809C620.699 73.5202 622.506 74.0898 624.557 74.0898C628.43 74.0898 631.36 72.6576 633.346 69.793C635.331 66.9284 636.324 63.4941 636.324 59.4902ZM673.02 82H660.227V47.3809C660.064 39.1452 659.934 34.181 659.836 32.4883H671.457L671.75 44.9883C672.857 41.082 674.533 37.957 676.779 35.6133C679.058 33.2695 682.02 32.0977 685.666 32.0977C686.773 32.0977 688.026 32.2604 689.426 32.5859V44.5977C687.733 44.1419 686.236 43.9141 684.934 43.9141C681.906 43.9141 679.497 44.7116 677.707 46.3066C675.917 47.9017 674.68 49.9525 673.996 52.459C673.345 54.9329 673.02 57.651 673.02 60.6133V61.5898V82ZM736.131 68.8164L736.326 79.9004C731.085 82.179 725.421 83.3184 719.334 83.3184C715.265 83.3184 711.635 82.7487 708.445 81.6094C705.288 80.4375 702.586 78.7285 700.34 76.4824C698.094 74.2038 696.385 71.4694 695.213 68.2793C694.041 65.0566 693.455 61.3945 693.455 57.293C693.455 53.5169 693.992 50.0501 695.066 46.8926C696.173 43.7025 697.752 40.9518 699.803 38.6406C701.854 36.2969 704.376 34.474 707.371 33.1719C710.398 31.8698 713.816 31.2188 717.625 31.2188C721.336 31.2188 724.607 31.8861 727.439 33.2207C730.271 34.5553 732.566 36.3945 734.324 38.7383C736.115 41.082 737.449 43.8001 738.328 46.8926C739.207 49.9525 739.646 53.3216 739.646 57C739.646 57.651 739.63 58.1393 739.598 58.4648C739.565 58.7904 739.533 59.1973 739.5 59.6855C739.467 60.1738 739.419 60.7435 739.354 61.3945H706.053C706.378 65.3008 707.892 68.3444 710.594 70.5254C713.328 72.7064 716.714 73.7969 720.75 73.7969C725.307 73.7969 730.434 72.1367 736.131 68.8164ZM727.439 52.5078C727.374 50.2943 726.967 48.2598 726.219 46.4043C725.503 44.5488 724.38 43.0514 722.85 41.9121C721.352 40.7728 719.48 40.2031 717.234 40.2031C714.923 40.2031 712.938 40.7728 711.277 41.9121C709.65 43.0189 708.38 44.5 707.469 46.3555C706.59 48.2109 706.053 50.2617 705.857 52.5078H727.439Z" fill="#231F20"/>
</g>
<g filter="url(#filter1_i)">
<path d="M244.867 133.32L244.562 137.75C243.281 137.031 242 136.508 240.719 136.18C239.438 135.852 238 135.688 236.406 135.688C233.875 135.688 231.633 136.203 229.68 137.234C227.727 138.25 226.211 139.688 225.133 141.547C224.07 143.406 223.539 145.5 223.539 147.828C223.539 150.266 224.078 152.445 225.156 154.367C226.25 156.273 227.789 157.75 229.773 158.797C231.758 159.828 234.031 160.344 236.594 160.344C237.938 160.344 239.383 160.125 240.93 159.688V150.406H234.062V146.539H245.477V162.758C243.867 163.289 242.336 163.672 240.883 163.906C239.445 164.125 237.922 164.234 236.312 164.234C233.641 164.234 231.219 163.859 229.047 163.109C226.875 162.359 225 161.258 223.422 159.805C221.844 158.352 220.648 156.617 219.836 154.602C219.039 152.586 218.641 150.312 218.641 147.781C218.641 144.453 219.406 141.586 220.938 139.18C222.484 136.758 224.578 134.922 227.219 133.672C229.875 132.422 232.844 131.797 236.125 131.797C239.312 131.797 242.227 132.305 244.867 133.32ZM257.125 130.109V134.914H252.367V130.109H257.125ZM257.031 140.539V164H252.648V140.539H257.031ZM282.719 140.539L274.281 164H269.289L260.641 140.539H265.352L270.156 154.062C270.438 154.906 270.688 155.641 270.906 156.266C271.141 156.875 271.336 157.469 271.492 158.047C271.664 158.609 271.797 159.234 271.891 159.922C272.047 158.875 272.383 157.625 272.898 156.172L278.406 140.539H282.719ZM289.281 153.383C289.594 155.711 290.445 157.555 291.836 158.914C293.242 160.258 295 160.93 297.109 160.93C298.359 160.93 299.578 160.75 300.766 160.391C301.953 160.031 303.18 159.477 304.445 158.727V162.898C303.023 163.523 301.734 163.969 300.578 164.234C299.422 164.5 298.203 164.633 296.922 164.633C295.109 164.633 293.461 164.336 291.977 163.742C290.492 163.148 289.227 162.297 288.18 161.188C287.133 160.078 286.328 158.742 285.766 157.18C285.203 155.602 284.922 153.875 284.922 152C284.922 149.609 285.375 147.5 286.281 145.672C287.188 143.844 288.484 142.43 290.172 141.43C291.875 140.414 293.805 139.906 295.961 139.906C298.492 139.906 300.508 140.531 302.008 141.781C303.523 143.016 304.594 144.648 305.219 146.68C305.859 148.711 306.18 150.945 306.18 153.383H289.281ZM289.328 149.984H301.82C301.664 148.703 301.367 147.578 300.93 146.609C300.492 145.625 299.844 144.836 298.984 144.242C298.125 143.648 297.07 143.352 295.82 143.352C294.102 143.352 292.664 143.945 291.508 145.133C290.367 146.305 289.641 147.922 289.328 149.984ZM317.102 158.867V164H311.969V158.867H317.102ZM355.445 131.984V135.922H343.023V145.461H354.977V149.352H343.023V164H338.453V131.984H355.445ZM381.016 140.586V155.352C381.016 156.633 381.125 159.516 381.344 164H377.312L377.125 160.344C376.172 161.672 375.031 162.672 373.703 163.344C372.375 164 370.875 164.328 369.203 164.328C365.938 164.328 363.672 163.312 362.406 161.281C361.141 159.25 360.508 156.492 360.508 153.008V140.586H364.867V151.461C364.867 152.32 364.883 153.211 364.914 154.133C364.961 155.055 365.023 155.773 365.102 156.289C365.18 156.805 365.297 157.281 365.453 157.719C365.875 158.75 366.477 159.539 367.258 160.086C368.055 160.617 368.992 160.883 370.07 160.883C371.07 160.883 371.977 160.688 372.789 160.297C373.602 159.891 374.297 159.312 374.875 158.562C375.453 157.812 375.898 156.914 376.211 155.867C376.523 154.82 376.68 153.672 376.68 152.422V150.852V140.586H381.016ZM392.055 140.539L392.266 144.266C394.047 141.516 396.734 140.141 400.328 140.141C402.297 140.141 403.875 140.5 405.062 141.219C406.25 141.938 407.125 142.891 407.688 144.078C408.25 145.25 408.617 146.547 408.789 147.969C408.961 149.375 409.047 151.086 409.047 153.102V164H404.734V153.43C404.734 151.742 404.703 150.516 404.641 149.75C404.594 148.969 404.5 148.281 404.359 147.688C404.031 146.438 403.438 145.484 402.578 144.828C401.719 144.172 400.648 143.844 399.367 143.844C397.93 143.844 396.648 144.273 395.523 145.133C394.398 145.992 393.609 147.164 393.156 148.648C393.016 149.07 392.898 149.562 392.805 150.125C392.727 150.688 392.68 151.297 392.664 151.953C392.648 152.609 392.641 153.758 392.641 155.398V164H388.281V152.422C388.25 151.094 388.227 149.875 388.211 148.766C388.195 147.641 388.164 146.32 388.117 144.805C388.086 143.273 388.039 141.852 387.977 140.539H392.055ZM436.234 129.43V153.055C436.234 154.273 436.273 156.109 436.352 158.562C436.43 161.016 436.5 162.828 436.562 164H432.344V160.062C431.391 161.516 430.258 162.594 428.945 163.297C427.633 163.984 426.062 164.328 424.234 164.328C422.188 164.328 420.383 163.844 418.82 162.875C417.258 161.906 416.055 160.516 415.211 158.703C414.383 156.891 413.969 154.781 413.969 152.375C413.969 150.547 414.203 148.898 414.672 147.43C415.156 145.961 415.867 144.664 416.805 143.539C417.742 142.414 418.836 141.57 420.086 141.008C421.336 140.43 422.719 140.141 424.234 140.141C427.562 140.141 430.156 141.5 432.016 144.219C432.016 143.984 432 143.656 431.969 143.234C431.953 142.812 431.93 142.398 431.898 141.992C431.883 141.57 431.875 141.242 431.875 141.008V129.43H436.234ZM425.289 143.844C424.305 143.844 423.406 144.047 422.594 144.453C421.781 144.859 421.07 145.445 420.461 146.211C419.852 146.977 419.383 147.891 419.055 148.953C418.727 150.016 418.562 151.141 418.562 152.328C418.562 154.766 419.18 156.766 420.414 158.328C421.648 159.875 423.227 160.648 425.148 160.648C426.445 160.648 427.609 160.289 428.641 159.57C429.672 158.836 430.484 157.828 431.078 156.547C431.672 155.25 431.969 153.828 431.969 152.281C431.969 150.719 431.672 149.289 431.078 147.992C430.5 146.695 429.695 145.68 428.664 144.945C427.648 144.211 426.523 143.844 425.289 143.844ZM448.914 158.867V164H443.781V158.867H448.914ZM492.531 133.18L492.156 137.562C490.953 136.859 489.852 136.375 488.852 136.109C487.852 135.828 486.727 135.688 485.477 135.688C483.711 135.688 482.086 135.977 480.602 136.555C479.133 137.117 477.852 137.938 476.758 139.016C475.664 140.094 474.82 141.375 474.227 142.859C473.633 144.328 473.336 145.953 473.336 147.734C473.336 150.078 473.867 152.203 474.93 154.109C476.008 156 477.484 157.484 479.359 158.562C481.25 159.625 483.359 160.156 485.688 160.156C487.859 160.156 490.141 159.68 492.531 158.727L492.883 163.133C491.633 163.539 490.492 163.828 489.461 164C488.445 164.156 487.234 164.234 485.828 164.234C482.469 164.234 479.469 163.586 476.828 162.289C474.203 160.992 472.148 159.109 470.664 156.641C469.18 154.156 468.438 151.219 468.438 147.828C468.438 144.734 469.141 141.969 470.547 139.531C471.969 137.094 473.961 135.195 476.523 133.836C479.102 132.477 482.008 131.797 485.242 131.797C488.039 131.797 490.469 132.258 492.531 133.18ZM498.648 142.297C499.93 141.547 501.195 141 502.445 140.656C503.711 140.312 505.062 140.141 506.5 140.141C508.703 140.141 510.547 140.562 512.031 141.406C513.531 142.234 514.57 143.414 515.148 144.945C515.633 146.227 515.875 148.398 515.875 151.461V156.031C515.875 157.797 515.891 159.344 515.922 160.672C515.969 161.984 516.031 163.094 516.109 164H512.125C512.094 163.453 512.078 162.844 512.078 162.172C512.078 161.344 512.094 160.609 512.125 159.969C511.219 161.484 510.141 162.594 508.891 163.297C507.641 163.984 506.094 164.328 504.25 164.328C502.625 164.328 501.188 164.039 499.938 163.461C498.703 162.883 497.75 162.062 497.078 161C496.422 159.922 496.094 158.68 496.094 157.273C496.094 156.039 496.359 154.953 496.891 154.016C497.438 153.062 498.234 152.258 499.281 151.602C500.328 150.93 501.609 150.43 503.125 150.102C504.641 149.773 506.391 149.609 508.375 149.609C509.562 149.609 510.656 149.641 511.656 149.703C511.625 147.688 511.133 146.211 510.18 145.273C509.227 144.32 507.766 143.844 505.797 143.844C504.516 143.844 503.344 144.023 502.281 144.383C501.219 144.727 500.086 145.297 498.883 146.094L498.648 142.297ZM511.75 152.914C510.781 152.82 509.992 152.773 509.383 152.773C503.602 152.773 500.711 154.258 500.711 157.227C500.711 157.945 500.898 158.578 501.273 159.125C501.648 159.672 502.18 160.102 502.867 160.414C503.555 160.727 504.336 160.883 505.211 160.883C506.82 160.883 508.109 160.531 509.078 159.828C510.047 159.125 510.734 158.18 511.141 156.992C511.547 155.805 511.75 154.445 511.75 152.914ZM522.789 140.539H526.82L527.031 144.711C527.734 143.242 528.648 142.133 529.773 141.383C530.914 140.617 532.234 140.234 533.734 140.234C534.516 140.234 535.305 140.336 536.102 140.539V144.523C535.352 144.258 534.664 144.125 534.039 144.125C532.523 144.125 531.266 144.57 530.266 145.461C529.266 146.336 528.539 147.461 528.086 148.836C527.633 150.195 527.406 151.617 527.406 153.102V154.789V164H523.094V149.703C523.094 147.391 522.992 144.336 522.789 140.539ZM542.969 153.383C543.281 155.711 544.133 157.555 545.523 158.914C546.93 160.258 548.688 160.93 550.797 160.93C552.047 160.93 553.266 160.75 554.453 160.391C555.641 160.031 556.867 159.477 558.133 158.727V162.898C556.711 163.523 555.422 163.969 554.266 164.234C553.109 164.5 551.891 164.633 550.609 164.633C548.797 164.633 547.148 164.336 545.664 163.742C544.18 163.148 542.914 162.297 541.867 161.188C540.82 160.078 540.016 158.742 539.453 157.18C538.891 155.602 538.609 153.875 538.609 152C538.609 149.609 539.062 147.5 539.969 145.672C540.875 143.844 542.172 142.43 543.859 141.43C545.562 140.414 547.492 139.906 549.648 139.906C552.18 139.906 554.195 140.531 555.695 141.781C557.211 143.016 558.281 144.648 558.906 146.68C559.547 148.711 559.867 150.945 559.867 153.383H542.969ZM543.016 149.984H555.508C555.352 148.703 555.055 147.578 554.617 146.609C554.18 145.625 553.531 144.836 552.672 144.242C551.812 143.648 550.758 143.352 549.508 143.352C547.789 143.352 546.352 143.945 545.195 145.133C544.055 146.305 543.328 147.922 543.016 149.984ZM570.789 158.867V164H565.656V158.867H570.789Z" fill="#231F20"/>
</g>
<defs>
<filter id="filter0_i" x="55.6504" y="9.97852" width="683.996" height="77.3398" filterUnits="userSpaceOnUse" color-interpolation-filters="sRGB">
<feFlood flood-opacity="0" result="BackgroundImageFix"/>
<feBlend mode="normal" in="SourceGraphic" in2="BackgroundImageFix" result="shape"/>
<feColorMatrix in="SourceAlpha" type="matrix" values="0 0 0 0 0 0 0 0 0 0 0 0 0 0 0 0 0 0 127 0" result="hardAlpha"/>
<feOffset dy="4"/>
<feGaussianBlur stdDeviation="2"/>
<feComposite in2="hardAlpha" operator="arithmetic" k2="-1" k3="1"/>
<feColorMatrix type="matrix" values="0 0 0 0 1 0 0 0 0 1 0 0 0 0 1 0 0 0 0.25 0"/>
<feBlend mode="normal" in2="shape" result="effect1_innerShadow"/>
</filter>
<filter id="filter1_i" x="218.641" y="129.43" width="352.148" height="39.2031" filterUnits="userSpaceOnUse" color-interpolation-filters="sRGB">
<feFlood flood-opacity="0" result="BackgroundImageFix"/>
<feBlend mode="normal" in="SourceGraphic" in2="BackgroundImageFix" result="shape"/>
<feColorMatrix in="SourceAlpha" type="matrix" values="0 0 0 0 0 0 0 0 0 0 0 0 0 0 0 0 0 0 127 0" result="hardAlpha"/>
<feOffset dy="4"/>
<feGaussianBlur stdDeviation="2"/>
<feComposite in2="hardAlpha" operator="arithmetic" k2="-1" k3="1"/>
<feColorMatrix type="matrix" values="0 0 0 0 1 0 0 0 0 1 0 0 0 0 1 0 0 0 0.2 0"/>
<feBlend mode="normal" in2="shape" result="effect1_innerShadow"/>
</filter>
</defs>
</svg>
